<svg xmlns="http://www.w3.org/2000/svg" version="1" width="1024" height="1024" viewBox="0 0 1024 1024"><style>@media (prefers-color-scheme:dark){path{fill:#000}}</style><path fill="#000" transform="translate(0,1024) scale(0.1,-0.1)" d="M5022 9318 c-56 -10 -176 -69 -472 -230 -178 -97 -1488 -806 -1835 -993 -104 -56 -374 -203 -600 -325 -225 -122 -444 -240 -485 -263 -41 -22 -151 -81 -245 -132 -221 -120 -698 -378 -998 -540 -130 -71 -234 -131 -230 -135 5 -4 85 -26 178 -50 749 -189 1420 -404 1720 -551 164 -80 204 -111 253 -201 82 -151 231 -426 272 -503 24 -44 85 -156 135 -250 51 -93 226 -417 390 -720 163 -302 356 -658 427 -790 72 -132 149 -274 171 -315 22 -41 50 -93 62 -115 12 -22 103 -191 203 -375 99 -184 298 -551 441 -815 143 -264 258 -481 256 -483 -3 -3 -117 28 -680 184 -187 52 -389 108 -450 125 -60 17 -342 95 -625 173 -283 79 -519 140 -524 135 -6 -6 -90 -294 -119 -411 -7 -25 -4 -27 45 -41 29 -9 251 -70 493 -137 727 -200 1375 -380 1465 -405 47 -13 177 -49 290 -80 113 -31 275 -76 360 -100 85 -24 583 -161 1105 -305 523 -145 955 -265 962 -267 7 -3 18 16 27 49 8 29 36 129 62 221 25 92 44 170 41 173 -5 6 -49 18 -1047 294 -360 100 -656 183 -658 185 -2 1 66 40 150 85 84 46 259 140 388 210 402 218 954 517 1210 655 135 73 380 206 545 295 165 89 381 206 480 259 157 84 189 105 255 171 42 41 88 98 103 127 39 73 67 192 67 285 l0 78 143 71 c179 90 474 245 592 312 394 222 662 596 757 1054 32 158 32 423 -1 578 -132 626 -589 1084 -1211 1215 -52 12 -100 26 -106 33 -7 6 -20 37 -29 67 -25 77 -84 201 -138 292 -265 447 -725 724 -1252 753 -283 16 -585 -58 -873 -216 -40 -22 -76 -37 -81 -34 -5 2 -63 105 -129 227 -66 123 -188 349 -272 503 -83 154 -209 386 -278 515 -153 283 -201 341 -342 408 -128 61 -231 75 -368 50z m2450 -2022 c398 -77 691 -364 789 -776 21 -84 18 -308 -5 -405 -55 -237 -189 -443 -381 -585 -61 -45 -227 -130 -253 -130 -18 0 -34 26 -167 275 -18 33 -75 139 -128 235 -52 96 -140 258 -195 360 -54 102 -176 328 -271 502 -94 174 -171 321 -171 326 0 19 137 100 249 147 145 60 372 82 533 51z m1466 -1167 c392 -157 632 -503 633 -914 1 -268 -95 -501 -289 -699 -69 -71 -149 -128 -262 -188 -308 -164 -632 -328 -648 -328 -5 0 -59 89 -118 198 -278 512 -374 691 -374 697 0 3 26 18 58 32 221 101 452 287 588 473 135 185 250 452 283 655 21 123 15 120 129 74z"/></svg>